<mxfile host="app.diagrams.net" agent="Mozilla/5.0 (Windows NT 10.0; Win64; x64) AppleWebKit/537.36 (KHTML, like Gecko) Chrome/109.0.0.0 Safari/537.36" version="26.1.3">
  <diagram name="第 1 页" id="Bih-HRJaKUZkkIs8uboh">
    <mxGraphModel dx="1687" dy="889" grid="1" gridSize="10" guides="1" tooltips="1" connect="1" arrows="1" fold="1" page="1" pageScale="1" pageWidth="827" pageHeight="1169" math="0" shadow="0">
      <root>
        <mxCell id="0" />
        <mxCell id="1" parent="0" />
        <mxCell id="-TxAPGOhzZe4RtlJ49up-13" value="" style="rounded=0;whiteSpace=wrap;html=1;dashed=1;fillColor=none;" vertex="1" parent="1">
          <mxGeometry x="159" y="320" width="468" height="450" as="geometry" />
        </mxCell>
        <mxCell id="-TxAPGOhzZe4RtlJ49up-12" value="" style="rounded=0;whiteSpace=wrap;html=1;dashed=1;fillColor=none;" vertex="1" parent="1">
          <mxGeometry x="159" y="71" width="468" height="239" as="geometry" />
        </mxCell>
        <mxCell id="-TxAPGOhzZe4RtlJ49up-15" style="edgeStyle=orthogonalEdgeStyle;rounded=0;orthogonalLoop=1;jettySize=auto;html=1;exitX=0.5;exitY=1;exitDx=0;exitDy=0;entryX=0.5;entryY=0;entryDx=0;entryDy=0;" edge="1" parent="1" source="-TxAPGOhzZe4RtlJ49up-1" target="-TxAPGOhzZe4RtlJ49up-2">
          <mxGeometry relative="1" as="geometry" />
        </mxCell>
        <mxCell id="-TxAPGOhzZe4RtlJ49up-1" value="&lt;font style=&quot;font-size: 20px;&quot;&gt;&lt;b&gt;输入数据&lt;/b&gt;&lt;/font&gt;" style="rounded=1;whiteSpace=wrap;html=1;" vertex="1" parent="1">
          <mxGeometry x="290" y="100" width="206" height="50" as="geometry" />
        </mxCell>
        <mxCell id="-TxAPGOhzZe4RtlJ49up-17" style="edgeStyle=orthogonalEdgeStyle;rounded=0;orthogonalLoop=1;jettySize=auto;html=1;exitX=0.5;exitY=1;exitDx=0;exitDy=0;entryX=0.5;entryY=0;entryDx=0;entryDy=0;" edge="1" parent="1" source="-TxAPGOhzZe4RtlJ49up-2" target="-TxAPGOhzZe4RtlJ49up-3">
          <mxGeometry relative="1" as="geometry" />
        </mxCell>
        <mxCell id="-TxAPGOhzZe4RtlJ49up-2" value="" style="rounded=1;whiteSpace=wrap;html=1;fillColor=#dae8fc;strokeColor=#6c8ebf;" vertex="1" parent="1">
          <mxGeometry x="290" y="170" width="206" height="50" as="geometry" />
        </mxCell>
        <mxCell id="-TxAPGOhzZe4RtlJ49up-14" style="edgeStyle=orthogonalEdgeStyle;rounded=0;orthogonalLoop=1;jettySize=auto;html=1;exitX=0.5;exitY=1;exitDx=0;exitDy=0;entryX=0.5;entryY=0;entryDx=0;entryDy=0;dashed=1;" edge="1" parent="1" source="-TxAPGOhzZe4RtlJ49up-3" target="-TxAPGOhzZe4RtlJ49up-4">
          <mxGeometry relative="1" as="geometry" />
        </mxCell>
        <mxCell id="-TxAPGOhzZe4RtlJ49up-3" value="" style="rounded=1;whiteSpace=wrap;html=1;fillColor=#ffe6cc;strokeColor=#d79b00;" vertex="1" parent="1">
          <mxGeometry x="290" y="240" width="206" height="50" as="geometry" />
        </mxCell>
        <mxCell id="-TxAPGOhzZe4RtlJ49up-18" style="edgeStyle=orthogonalEdgeStyle;rounded=0;orthogonalLoop=1;jettySize=auto;html=1;exitX=0.5;exitY=1;exitDx=0;exitDy=0;entryX=0.5;entryY=0;entryDx=0;entryDy=0;" edge="1" parent="1" source="-TxAPGOhzZe4RtlJ49up-4" target="-TxAPGOhzZe4RtlJ49up-5">
          <mxGeometry relative="1" as="geometry" />
        </mxCell>
        <mxCell id="-TxAPGOhzZe4RtlJ49up-4" value="" style="rounded=1;whiteSpace=wrap;html=1;fillColor=#fff2cc;strokeColor=#d6b656;" vertex="1" parent="1">
          <mxGeometry x="290" y="340" width="206" height="50" as="geometry" />
        </mxCell>
        <mxCell id="-TxAPGOhzZe4RtlJ49up-19" style="edgeStyle=orthogonalEdgeStyle;rounded=0;orthogonalLoop=1;jettySize=auto;html=1;exitX=0.5;exitY=1;exitDx=0;exitDy=0;entryX=0.5;entryY=0;entryDx=0;entryDy=0;" edge="1" parent="1" source="-TxAPGOhzZe4RtlJ49up-5" target="-TxAPGOhzZe4RtlJ49up-6">
          <mxGeometry relative="1" as="geometry" />
        </mxCell>
        <mxCell id="-TxAPGOhzZe4RtlJ49up-5" value="" style="rounded=1;whiteSpace=wrap;html=1;fillColor=#e1d5e7;strokeColor=#9673a6;" vertex="1" parent="1">
          <mxGeometry x="290" y="412" width="206" height="50" as="geometry" />
        </mxCell>
        <mxCell id="-TxAPGOhzZe4RtlJ49up-20" style="edgeStyle=orthogonalEdgeStyle;rounded=0;orthogonalLoop=1;jettySize=auto;html=1;exitX=0.5;exitY=1;exitDx=0;exitDy=0;entryX=0.5;entryY=0;entryDx=0;entryDy=0;" edge="1" parent="1" source="-TxAPGOhzZe4RtlJ49up-6" target="-TxAPGOhzZe4RtlJ49up-7">
          <mxGeometry relative="1" as="geometry" />
        </mxCell>
        <mxCell id="-TxAPGOhzZe4RtlJ49up-6" value="" style="rounded=1;whiteSpace=wrap;html=1;fillColor=#d5e8d4;strokeColor=#82b366;" vertex="1" parent="1">
          <mxGeometry x="290" y="484" width="206" height="50" as="geometry" />
        </mxCell>
        <mxCell id="-TxAPGOhzZe4RtlJ49up-21" style="edgeStyle=orthogonalEdgeStyle;rounded=0;orthogonalLoop=1;jettySize=auto;html=1;exitX=0.5;exitY=1;exitDx=0;exitDy=0;entryX=0.5;entryY=0;entryDx=0;entryDy=0;" edge="1" parent="1" source="-TxAPGOhzZe4RtlJ49up-7" target="-TxAPGOhzZe4RtlJ49up-8">
          <mxGeometry relative="1" as="geometry" />
        </mxCell>
        <mxCell id="-TxAPGOhzZe4RtlJ49up-7" value="" style="rounded=1;whiteSpace=wrap;html=1;fillColor=#d5e8d4;strokeColor=#82b366;" vertex="1" parent="1">
          <mxGeometry x="309.5" y="556" width="167" height="50" as="geometry" />
        </mxCell>
        <mxCell id="-TxAPGOhzZe4RtlJ49up-22" style="edgeStyle=orthogonalEdgeStyle;rounded=0;orthogonalLoop=1;jettySize=auto;html=1;exitX=0.5;exitY=1;exitDx=0;exitDy=0;entryX=0.5;entryY=0;entryDx=0;entryDy=0;" edge="1" parent="1" source="-TxAPGOhzZe4RtlJ49up-8" target="-TxAPGOhzZe4RtlJ49up-9">
          <mxGeometry relative="1" as="geometry" />
        </mxCell>
        <mxCell id="-TxAPGOhzZe4RtlJ49up-8" value="" style="rounded=1;whiteSpace=wrap;html=1;fillColor=#d5e8d4;strokeColor=#82b366;" vertex="1" parent="1">
          <mxGeometry x="329.5" y="628" width="127" height="50" as="geometry" />
        </mxCell>
        <mxCell id="-TxAPGOhzZe4RtlJ49up-9" value="&lt;font style=&quot;font-size: 20px;&quot;&gt;&lt;b&gt;标签&lt;/b&gt;&lt;/font&gt;" style="rounded=1;whiteSpace=wrap;html=1;fillColor=#d5e8d4;strokeColor=#82b366;" vertex="1" parent="1">
          <mxGeometry x="347.75" y="700" width="90.5" height="50" as="geometry" />
        </mxCell>
        <mxCell id="-TxAPGOhzZe4RtlJ49up-10" value="&lt;span style=&quot;color: rgb(0, 0, 0); font-family: Helvetica; font-style: normal; font-variant-ligatures: normal; font-variant-caps: normal; letter-spacing: normal; orphans: 2; text-align: center; text-indent: 0px; text-transform: none; white-space: normal; widows: 2; word-spacing: 0px; -webkit-text-stroke-width: 0px; background-color: rgb(251, 251, 251); text-decoration-thickness: initial; text-decoration-style: initial; text-decoration-color: initial; float: none; display: inline !important;&quot;&gt;&lt;b style=&quot;&quot;&gt;&lt;font style=&quot;font-size: 25px;&quot;&gt;客户端&lt;/font&gt;&lt;/b&gt;&lt;/span&gt;" style="text;whiteSpace=wrap;html=1;" vertex="1" parent="1">
          <mxGeometry x="190" y="171" width="110" height="50" as="geometry" />
        </mxCell>
        <mxCell id="-TxAPGOhzZe4RtlJ49up-11" value="&lt;span style=&quot;color: rgb(0, 0, 0); font-family: Helvetica; font-style: normal; font-variant-ligatures: normal; font-variant-caps: normal; letter-spacing: normal; orphans: 2; text-align: center; text-indent: 0px; text-transform: none; white-space: normal; widows: 2; word-spacing: 0px; -webkit-text-stroke-width: 0px; background-color: rgb(251, 251, 251); text-decoration-thickness: initial; text-decoration-style: initial; text-decoration-color: initial; float: none; display: inline !important;&quot;&gt;&lt;b style=&quot;&quot;&gt;&lt;font style=&quot;font-size: 25px;&quot;&gt;服务端&lt;/font&gt;&lt;/b&gt;&lt;/span&gt;" style="text;whiteSpace=wrap;html=1;" vertex="1" parent="1">
          <mxGeometry x="190" y="520" width="110" height="50" as="geometry" />
        </mxCell>
      </root>
    </mxGraphModel>
  </diagram>
</mxfile>
